<svg width="30" height="30" viewBox="0 0 30 30" fill="none" xmlns="http://www.w3.org/2000/svg">
<path d="M14.8784 7.47607C14.1367 7.47607 13.4117 7.69601 12.795 8.10806C12.1783 8.52012 11.6977 9.10579 11.4139 9.79101C11.13 10.4762 11.0558 11.2302 11.2005 11.9577C11.3452 12.6851 11.7023 13.3533 12.2268 13.8777C12.7512 14.4022 13.4194 14.7593 14.1468 14.904C14.8743 15.0487 15.6283 14.9745 16.3135 14.6906C16.9987 14.4068 17.5844 13.9261 17.9964 13.3095C18.4085 12.6928 18.6284 11.9678 18.6284 11.2261C18.6273 10.2319 18.2318 9.27869 17.5288 8.57567C16.8258 7.87266 15.8726 7.47721 14.8784 7.47607ZM14.8784 13.1011C14.5076 13.1011 14.1451 12.9911 13.8367 12.7851C13.5284 12.5791 13.2881 12.2862 13.1461 11.9436C13.0042 11.601 12.9671 11.224 13.0394 10.8603C13.1118 10.4966 13.2904 10.1625 13.5526 9.90025C13.8148 9.63803 14.1489 9.45945 14.5126 9.3871C14.8763 9.31475 15.2533 9.35189 15.596 9.4938C15.9386 9.63571 16.2314 9.87604 16.4374 10.1844C16.6435 10.4927 16.7534 10.8552 16.7534 11.2261C16.7528 11.7232 16.5551 12.1998 16.2036 12.5513C15.8521 12.9028 15.3755 13.1005 14.8784 13.1011Z" fill="#B5986D"/>
<path d="M22.0843 4.01466C20.3026 2.23343 17.9243 1.17531 15.4083 1.04451C12.8924 0.913718 10.4171 1.71952 8.46036 3.30639C6.50359 4.89327 5.20398 7.14872 4.81237 9.63745C4.42076 12.1262 4.9649 14.6718 6.33978 16.7829L13.4242 27.6586C13.5818 27.9006 13.7974 28.0995 14.0513 28.2371C14.3052 28.3748 14.5895 28.4468 14.8783 28.4468C15.1672 28.4468 15.4514 28.3748 15.7053 28.2371C15.9593 28.0995 16.1748 27.9006 16.3325 27.6586L23.4171 16.7829C24.6928 14.8245 25.2566 12.4871 25.014 10.1625C24.7713 7.8379 23.737 5.66734 22.0843 4.01466ZM21.8461 15.7594L14.8784 26.4557L7.91056 15.7594C5.77775 12.4853 6.23519 8.10362 8.99824 5.34046C9.77042 4.56826 10.6871 3.95571 11.6961 3.5378C12.705 3.11988 13.7863 2.90478 14.8784 2.90478C15.9704 2.90478 17.0518 3.11988 18.0607 3.5378C19.0696 3.95571 19.9863 4.56826 20.7585 5.34046C23.5215 8.10362 23.9789 12.4853 21.8461 15.7594Z" fill="#B5986D"/>
</svg>
