<svg width="23" height="22" viewBox="0 0 23 22" fill="none" xmlns="http://www.w3.org/2000/svg">
<g clip-path="url(#clip0_4_1705)">
<path d="M22.2206 6.33718L19.7369 14.16C19.5511 14.7171 19.0637 15.0885 18.4834 15.0885H8.89639C8.33928 15.0885 7.80538 14.7403 7.61968 14.2296L3.95203 4.4105H1.83965C1.32897 4.4105 0.911133 3.99267 0.911133 3.48199C0.911133 2.9713 1.32897 2.55347 1.83965 2.55347H4.60199C4.99662 2.55347 5.34481 2.80881 5.48409 3.18022L9.2678 13.2314H18.0887L20.0618 6.96393H9.12852C8.61784 6.96393 8.20001 6.5461 8.20001 6.03541C8.20001 5.52473 8.61784 5.10689 9.12852 5.10689H21.3385C21.6403 5.10689 21.9189 5.26938 22.0814 5.50151C22.2671 5.73364 22.3135 6.05862 22.2206 6.33718ZM9.36065 16.3188C8.96603 16.3188 8.57141 16.4812 8.29286 16.7598C8.0143 17.0384 7.85181 17.433 7.85181 17.8276C7.85181 18.2222 8.0143 18.6168 8.29286 18.8954C8.57141 19.174 8.96603 19.3364 9.36065 19.3364C9.75527 19.3364 10.1499 19.174 10.4285 18.8954C10.707 18.6168 10.8695 18.2222 10.8695 17.8276C10.8695 17.433 10.707 17.0384 10.4285 16.7598C10.1499 16.4812 9.75527 16.3188 9.36065 16.3188ZM17.6941 16.3188C17.2995 16.3188 16.9049 16.4812 16.6263 16.7598C16.3478 17.0384 16.1853 17.433 16.1853 17.8276C16.1853 18.2222 16.3478 18.6168 16.6263 18.8954C16.9049 19.174 17.2995 19.3364 17.6941 19.3364C18.0887 19.3364 18.4834 19.174 18.7619 18.8954C19.0405 18.6168 19.203 18.2222 19.203 17.8276C19.203 17.433 19.0405 17.0384 18.7619 16.7598C18.4834 16.4812 18.0887 16.3188 17.6941 16.3188Z" fill="#422040"/>
</g>
<defs>
<clipPath id="clip0_4_1705">
<rect width="21.3559" height="21.3559" fill="white" transform="translate(0.911133)"/>
</clipPath>
</defs>
</svg>
