<svg width="34" height="34" viewBox="0 0 34 34" fill="none" xmlns="http://www.w3.org/2000/svg">
<path d="M23.9282 26.8685C22.1468 24.879 19.5586 23.627 16.6779 23.627C13.7973 23.627 11.2088 24.879 9.42745 26.8685M16.6779 29.1864C9.76967 29.1864 4.16943 23.5861 4.16943 16.6779C4.16943 9.76966 9.76967 4.16943 16.6779 4.16943C23.5862 4.16943 29.1864 9.76966 29.1864 16.6779C29.1864 23.5861 23.5862 29.1864 16.6779 29.1864ZM16.6779 19.4576C14.3752 19.4576 12.5084 17.5908 12.5084 15.2881C12.5084 12.9853 14.3752 11.1186 16.6779 11.1186C18.9807 11.1186 20.8474 12.9853 20.8474 15.2881C20.8474 17.5908 18.9807 19.4576 16.6779 19.4576Z" stroke="#E57A44" stroke-width="2.77966" stroke-linecap="round" stroke-linejoin="round"/>
</svg>
