<svg width="64" height="19" viewBox="0 0 64 19" fill="none" xmlns="http://www.w3.org/2000/svg">
<path d="M7.63761 4.28979C10.8376 4.28979 12.6276 5.98981 12.6276 8.80981C12.6276 9.11981 12.5876 9.5098 12.5276 9.9598H9.97761C10.0376 9.5098 10.0776 9.09981 10.0776 8.74981C10.0776 6.73981 9.08761 5.72979 7.11761 5.72979C4.19761 5.64979 2.14762 8.80981 2.18762 11.6898C2.18762 14.2198 3.64762 16.3898 6.68762 16.3898C8.41762 16.3898 10.3876 15.6698 12.1676 14.3598L11.6076 16.7398C9.96761 17.9698 8.03761 18.6098 6.22761 18.6098C2.85761 18.6098 0.0676054 16.4098 0.0676054 12.4498C-0.00239456 8.51979 2.99761 4.18979 7.63761 4.28979Z" fill="#F5E8D0"/>
<path d="M15.6678 6.71985H17.5378L16.7378 10.1898C17.2678 9.01985 17.9878 8.11984 18.8778 7.51984C19.7778 6.89984 20.6878 6.57983 21.6278 6.57983C22.3478 6.57983 22.9478 6.76984 23.4178 7.17984L22.9678 9.14984C22.4078 8.65984 21.7178 8.42984 20.9178 8.42984C20.0178 8.42984 19.1878 8.71983 18.3878 9.28983C17.5878 9.85983 17.0078 10.5399 16.5978 11.3199L14.9978 18.2598H12.9878L15.6678 6.71985Z" fill="#F5E8D0"/>
<path d="M28.9176 6.52998C30.9676 6.52998 32.2876 7.67998 32.5976 9.40998L33.2176 6.71998H35.2276L32.5576 18.26H30.6876L31.1576 16.19C30.0876 17.67 28.5476 18.47 26.8876 18.47C24.1376 18.47 22.7976 16.37 22.7976 13.77C22.7476 10.41 25.2576 6.40998 28.9176 6.52998ZM32.6076 11.56C32.6076 9.52998 31.4776 8.08998 29.3776 8.08998C26.7276 8.00998 24.8776 10.92 24.9176 13.41C24.9176 15.38 25.9476 16.86 27.9576 16.86C30.7576 16.92 32.6476 14.11 32.6076 11.56Z" fill="#F5E8D0"/>
<path d="M38.6476 8.18985H36.0776L36.4076 6.72983H38.9776L39.2476 5.55984C40.1076 1.79984 42.5976 0.339844 44.9376 0.339844C47.1176 0.339844 48.7576 1.60985 48.7576 3.43985C48.7576 3.70985 48.7376 3.96984 48.6776 4.17984H46.5576C46.5776 4.05984 46.5976 3.88984 46.5976 3.64984C46.5976 2.41984 45.7776 1.71985 44.3576 1.71985C42.2376 1.71985 41.0076 3.27984 41.0076 4.73984C41.0076 5.88984 41.8476 6.72983 43.4676 6.72983H45.9376L45.6076 8.18985H40.6576L38.3376 18.2598H36.3276L38.6476 8.18985Z" fill="#F5E8D0"/>
<path d="M47.3278 8.18985H45.1278L45.4578 6.72983H47.6578L48.3378 3.82983H50.3478L49.6678 6.72983H53.8978L53.5678 8.18985H49.3378L46.9978 18.2598H44.9878L47.3278 8.18985Z" fill="#F5E8D0"/>
<path d="M54.9877 14.6598C55.0677 15.4998 55.4577 16.1198 56.1777 16.5698C56.8977 17.0198 57.7178 17.2298 58.6378 17.2298C60.1178 17.2298 61.2678 16.6098 61.2678 15.4598C61.2678 14.5198 60.5678 14.0198 59.2578 13.7098L57.5078 13.2598C56.8278 13.0798 56.2578 12.9098 55.7778 12.7098C54.8378 12.2998 53.9877 11.4598 53.9877 10.0598C53.9877 7.81978 56.0177 6.52979 58.4277 6.52979C60.8977 6.52979 63.0678 7.85979 63.2178 10.0998H60.7978C60.7978 9.33979 60.5277 8.75978 59.9577 8.36978C59.3877 7.95978 58.7278 7.76978 57.9678 7.76978C56.6278 7.76978 55.6478 8.40977 55.6478 9.44977C55.6478 10.4598 56.4677 10.8698 58.1777 11.3198L60.1078 11.8298C61.9978 12.3198 63.0878 13.0998 63.0878 14.7898C63.0878 17.2098 60.7078 18.4898 58.0578 18.4898C55.3478 18.4898 52.7578 17.1298 52.4478 14.6698H54.9877V14.6598Z" fill="#F5E8D0"/>
</svg>
