<svg width="30" height="30" viewBox="0 0 30 30" fill="none" xmlns="http://www.w3.org/2000/svg">
<path d="M20.7125 27.4999C21.0445 27.5019 21.3736 27.4376 21.6805 27.311C21.9874 27.1844 22.266 26.9979 22.5 26.7624L25.8875 23.3749C26.1204 23.1407 26.251 22.8239 26.251 22.4937C26.251 22.1635 26.1204 21.8466 25.8875 21.6124L20.8875 16.6124C20.6533 16.3796 20.3365 16.2489 20.0063 16.2489C19.6761 16.2489 19.3592 16.3796 19.125 16.6124L17.125 18.5999C15.7404 18.2307 14.4579 17.5511 13.375 16.6124C12.4389 15.5278 11.7596 14.246 11.3875 12.8624L13.375 10.8624C13.6079 10.6282 13.7385 10.3114 13.7385 9.98118C13.7385 9.65095 13.6079 9.33414 13.375 9.09993L8.37504 4.09993C8.14084 3.86712 7.82402 3.73644 7.49379 3.73644C7.16356 3.73644 6.84674 3.86712 6.61254 4.09993L3.23754 7.49993C3.00208 7.73398 2.8156 8.01259 2.68897 8.31949C2.56235 8.62639 2.49812 8.95544 2.50004 9.28743C2.61345 14.0903 4.53263 18.674 7.87504 22.1249C11.3259 25.4673 15.9097 27.3865 20.7125 27.4999ZM7.50004 6.76243L10.7375 9.99993L9.12504 11.6124C8.97232 11.7555 8.85795 11.9346 8.79243 12.1333C8.72691 12.3321 8.71234 12.5441 8.75004 12.7499C9.21725 14.8379 10.2064 16.7732 11.625 18.3749C13.2255 19.7954 15.1613 20.7848 17.25 21.2499C17.4528 21.2923 17.6628 21.2837 17.8614 21.2247C18.0599 21.1658 18.2407 21.0585 18.3875 20.9124L20 19.2624L23.2375 22.4999L20.7375 24.9999C16.5922 24.8932 12.6369 23.2388 9.65004 20.3624C6.76618 17.3743 5.10705 13.4138 5.00004 9.26243L7.50004 6.76243ZM25 13.7499H27.5C27.5325 12.2637 27.2636 10.7863 26.7097 9.40669C26.1558 8.02713 25.3284 6.77399 24.2772 5.7228C23.226 4.67161 21.9728 3.84414 20.5933 3.29025C19.2137 2.73636 17.7363 2.46752 16.25 2.49993V4.99993C17.4099 4.95981 18.5657 5.1587 19.6454 5.58423C20.7252 6.00975 21.7058 6.65283 22.5265 7.47348C23.3471 8.29413 23.9902 9.27481 24.4157 10.3546C24.8413 11.4343 25.0402 12.5901 25 13.7499Z" fill="#B5986D"/>
<path d="M16.25 10C18.875 10 20 11.125 20 13.75H22.5C22.5 9.725 20.275 7.5 16.25 7.5V10Z" fill="#B5986D"/>
</svg>
