<svg width="167" height="113" viewBox="0 0 167 113" fill="none" xmlns="http://www.w3.org/2000/svg">
<path d="M116.006 60.8827C116.729 62.5344 117.513 64.1619 118.297 65.7895C119.346 67.9716 120.394 70.1537 121.299 72.3841C122.106 74.3854 123.842 75.8562 125.952 76.3023C126.278 76.3746 126.603 76.4349 126.929 76.5072C129.328 77.0136 131.787 76.0973 133.33 74.1925C133.343 74.1804 133.343 74.1684 133.355 74.1563C134.825 72.3479 136.296 70.5275 137.755 68.7191C139.166 66.983 140.6 65.2711 141.951 63.4747C143.241 61.7507 144.446 59.9423 145.29 57.9652C145.989 56.3255 146.459 54.5051 146.267 52.7208C146.074 50.9847 145.23 49.4657 143.831 48.4168C142.481 47.4041 140.89 46.8134 139.431 45.9694C138.695 45.5354 137.972 45.017 137.466 44.3178C136.947 43.5944 136.658 42.7505 136.574 41.8583C136.453 40.5683 136.706 39.3507 136.959 38.121C137.695 38.2054 138.418 38.2777 139.154 38.3259C140.829 38.4224 140.902 36.18 140.974 34.9261C141.01 34.239 140.938 33.5879 140.202 33.3348C139.515 33.0936 138.744 32.9851 138.032 32.8164C134.922 32.1292 132.27 31.6469 129.123 31.1888C128.375 31.0803 127.616 30.9477 126.856 30.8995C125.313 30.8151 125.398 32.7078 125.205 34.0822C125.12 34.673 125.313 35.324 125.808 35.6857C126.35 36.0956 127.399 36.2644 128.038 36.3729C128.46 36.4452 128.4 36.4211 128.822 36.4934C128.605 37.7352 128.351 38.6635 128.11 39.8812C127.941 40.7492 127.64 41.5208 126.929 42.0753C126.326 42.5576 125.603 42.871 124.879 43.1363C122.155 44.1369 119.008 44.4986 116.693 46.3793C113.896 48.6459 113.402 52.3712 114.149 55.7227C114.571 57.5191 115.283 59.219 116.006 60.8827Z" fill="#B5882D"/>
<path d="M142.228 78.3398L162.566 67.622C164.362 66.6696 166.484 68.0199 166.46 70.0453C166.436 72.6976 165.761 75.374 164.447 77.6044C159.926 85.2358 149.136 88.3583 141.806 82.7643C140.287 81.619 140.54 79.2319 142.228 78.3398Z" fill="#B5882D"/>
<path d="M38.4977 48.1275C46.8284 48.1275 51.4097 52.8414 51.4097 61.5579V62.7635H31.3726C32.3371 66.7661 35.9901 69.117 40.8607 69.117C44.574 69.117 48.5645 67.815 51.6026 65.5002V74.6989C47.6965 77.303 43.6095 78.6051 39.3175 78.6051C30.2153 78.6051 23.5242 72.348 23.5242 63.1493C23.4277 55.4937 28.9253 47.9829 38.4977 48.1275ZM41.5358 58.9659C41.5358 55.6384 39.8962 53.7697 37.1957 53.7697C34.0611 53.7697 31.9031 55.9398 31.2762 58.9659H41.5358Z" fill="#547B80"/>
<path d="M68.6984 48.1275C77.0291 48.1275 81.6104 52.8414 81.6104 61.5579V62.7635H61.5733C62.5378 66.7661 66.1908 69.117 71.0614 69.117C74.7746 69.117 78.7652 67.815 81.8033 65.5002V74.6989C77.8971 77.303 73.8102 78.6051 69.5182 78.6051C60.416 78.6051 53.7249 72.348 53.7249 63.1493C53.6284 55.4937 59.1139 47.9829 68.6984 48.1275ZM71.7365 58.9659C71.7365 55.6384 70.0969 53.7697 67.3964 53.7697C64.2618 53.7697 62.1038 55.9398 61.4769 58.9659H71.7365Z" fill="#547B80"/>
<path d="M85.1187 48.6097H93.9316V58.0977C95.089 51.2138 98.8866 48.2239 103.564 48.2239C104.77 48.2239 105.879 48.465 106.988 48.899V58.0977C105.638 57.3261 104.047 56.9404 102.178 56.9404C98.9469 56.9404 96.0655 58.3388 94.667 60.9912V78.0865H85.1307V48.6097H85.1187Z" fill="#547B80"/>
<path d="M41.548 85.2721C47.3469 85.2721 50.602 88.3464 50.602 93.4822C50.602 94.0489 50.5297 94.7601 50.4212 95.5679H45.7797C45.8882 94.7601 45.9605 94.0127 45.9605 93.3737C45.9605 89.7328 44.1521 87.8882 40.5835 87.8882C35.2789 87.7436 31.5656 93.4822 31.6259 98.7145C31.6259 103.32 34.2782 107.238 39.7999 107.238C42.9465 107.238 46.5271 105.924 49.7461 103.561L48.7213 107.877C45.7435 110.107 42.2472 111.277 38.956 111.277C32.8315 111.277 27.7801 107.274 27.7801 100.101C27.6836 92.9397 33.1329 85.0913 41.548 85.2721Z" fill="#B5882D"/>
<path d="M56.1357 89.6965H59.5355L58.0888 95.9898C59.0412 93.8679 60.3553 92.2404 61.9829 91.1433C63.6104 90.01 65.2742 89.4434 66.974 89.4434C68.2882 89.4434 69.3732 89.793 70.2292 90.5405L69.4214 94.109C68.3967 93.2289 67.1549 92.7949 65.7082 92.7949C64.0806 92.7949 62.5615 93.3254 61.1028 94.3502C59.6561 95.3749 58.5951 96.6167 57.8477 98.0272L54.9422 110.626H51.3013L56.1357 89.6965Z" fill="#B5882D"/>
<path d="M80.1996 89.3348C83.9129 89.3348 86.3241 91.4205 86.8907 94.5671L88.024 89.6845H91.6649L86.8184 110.638H83.4186L84.2625 106.888C82.3215 109.577 79.5245 111.024 76.5105 111.024C71.5193 111.024 69.084 107.202 69.084 102.5C68.9876 96.3755 73.5447 89.1178 80.1996 89.3348ZM86.8907 98.4612C86.8907 94.7841 84.8412 92.168 81.0194 92.168C76.2091 92.0233 72.8455 97.3038 72.9178 101.825C72.9178 105.393 74.7986 108.094 78.4395 108.094C83.5271 108.202 86.963 103.103 86.8907 98.4612Z" fill="#B5882D"/>
<path d="M97.8613 92.3489H93.1836L93.7864 89.6966H98.4521L98.9464 87.5748C100.502 80.739 105.035 78.0867 109.278 78.0867C113.245 78.0867 116.211 80.3894 116.211 83.7168C116.211 84.2111 116.174 84.6692 116.066 85.0671H112.208C112.244 84.8501 112.28 84.5366 112.28 84.1147C112.28 81.8843 110.797 80.6064 108.205 80.6064C104.347 80.6064 102.117 83.4395 102.117 86.0919C102.117 88.1775 103.636 89.6966 106.578 89.6966H111.075L110.472 92.3489H101.478L97.2706 110.638H93.6297L97.8613 92.3489Z" fill="#B5882D"/>
<path d="M113.607 92.3488H109.604L110.207 89.6964H114.209L115.451 84.428H119.092L117.85 89.6964H125.53L124.927 92.3488H117.247L113.004 110.638H109.363L113.607 92.3488Z" fill="#B5882D"/>
<path d="M127.519 104.091C127.664 105.61 128.363 106.744 129.677 107.563C130.992 108.371 132.474 108.769 134.138 108.769C136.827 108.769 138.912 107.636 138.912 105.55C138.912 103.85 137.634 102.934 135.271 102.367L132.089 101.56C130.847 101.246 129.822 100.921 128.942 100.571C127.242 99.8235 125.687 98.3044 125.687 95.7606C125.687 91.6857 129.364 89.3589 133.752 89.3589C138.249 89.3589 142.179 91.7701 142.457 95.8329H138.068C138.068 94.4586 137.574 93.3977 136.549 92.6864C135.525 91.9389 134.319 91.5893 132.945 91.5893C130.497 91.5893 128.737 92.7587 128.737 94.6273C128.737 96.4719 130.22 97.2073 133.342 98.0271L136.851 98.9434C140.287 99.8235 142.264 101.246 142.264 104.32C142.264 108.709 137.948 111.048 133.137 111.048C128.219 111.048 123.517 108.576 122.95 104.115H127.519V104.091Z" fill="#B5882D"/>
<path d="M26.3696 6.59448H43.1757C52.712 6.59448 57.9081 11.9353 57.9081 17.8186C57.9081 24.0274 52.1333 30.0554 41.9219 30.0554H36.1953V40.3151H26.3696V6.59448ZM41.1503 23.8828C45.2493 23.8828 47.6485 21.568 47.6485 18.7349C47.6485 15.8414 45.2373 13.5869 41.1503 13.5869H36.1953V23.8948H41.1503V23.8828Z" fill="#547B80"/>
<path d="M60.4639 0H70.0484V8.57182H60.4639V0ZM60.5121 10.8263H70.0484V40.3031H60.5121V10.8263Z" fill="#547B80"/>
<path d="M148.014 34.6008C147.424 34.6008 146.833 34.6128 146.242 34.6128C145.953 31.8761 145.555 29.1635 145.012 26.4388C144.783 25.3176 144.542 24.2085 144.241 23.1114C144.084 22.5568 143.927 22.0023 143.746 21.4598C143.65 21.1463 143.541 20.8449 143.433 20.5314C143.397 20.4229 143.192 19.9286 143.168 19.8684C142.746 18.9521 142.276 18.0599 141.721 17.216C141.6 17.0231 141.468 16.8544 141.335 16.6615C141.311 16.6494 141.299 16.6253 141.275 16.6132C140.817 16.2033 140.347 15.7332 139.937 15.275C139.913 15.2509 139.901 15.2388 139.889 15.2268C139.889 15.2268 139.876 15.2268 139.876 15.2147C139.647 15.0821 139.442 14.9254 139.213 14.7928C138.912 14.6119 138.599 14.4673 138.297 14.2985C138.237 14.2623 137.803 14.0694 137.827 14.0574C136.682 13.6233 135.464 13.3581 134.27 13.1411C132.064 12.7553 129.472 12.8518 127.157 13.6234C127.025 13.6716 126.904 13.7077 126.772 13.756C126.687 13.7921 126.398 13.9247 126.338 13.973C125.843 14.2623 125.337 14.5396 124.843 14.8531C124.794 14.8772 124.758 14.9013 124.722 14.9254C124.541 15.0821 124.372 15.2268 124.204 15.3956C124.023 15.5643 123.119 16.6735 123.324 16.3239C122.6 17.4089 122.178 18.4457 121.913 19.2776C121.479 20.6761 121.141 22.1108 120.828 23.5454C120.093 26.9331 119.55 30.3691 119.14 33.8171C119.104 34.0824 119.068 34.4079 119.032 34.7575C117.163 34.7696 115.294 34.7695 113.414 34.7816C110.942 34.7937 109.001 32.6356 109.315 30.1883C109.375 29.7543 109.423 29.3323 109.483 28.8983C109.797 26.4389 110.231 23.9915 110.749 21.5683C111.485 18.1082 112.329 14.3949 114.294 11.3809C116.199 8.46338 118.875 6.0522 122.082 4.65371C128.761 1.74822 136.778 2.09784 143.3 5.32884C149.196 8.24639 152.475 14.3226 154.151 20.435C154.995 23.5213 155.61 26.7041 156.044 29.911C156.381 32.3583 154.464 34.5525 151.993 34.5646C150.679 34.5767 149.34 34.5887 148.014 34.6008Z" fill="#547B80"/>
<path d="M140.986 75.338C145.905 69.7682 150.824 64.2224 155.767 58.6887C157.032 57.2661 159.347 57.6037 160.167 59.3156C162.494 64.2224 162.747 70.2143 158.322 74.7594C153.777 79.4371 147.846 80.7029 142.445 79.7144C140.431 79.3406 139.636 76.8691 140.986 75.338Z" fill="#CDC8AE"/>
<path d="M9.00899 112.977C10.8294 112.808 12.6499 112.627 14.4704 112.446C16.4958 112.253 18.1595 110.843 18.7864 108.902C18.7864 108.89 18.7984 108.878 18.7984 108.865C19.7388 105.984 20.5225 103.103 20.5225 100.052C20.5225 97.1832 19.9317 94.2536 18.8105 91.6133C17.7255 89.0574 16.11 86.9235 14.4945 84.7173C12.8428 82.4628 11.5649 79.9431 10.8536 77.2305C9.21394 70.9735 9.96142 64.4512 8.87638 58.1339C8.82815 57.8566 8.65936 57.6275 8.41824 57.4828C7.62255 57.0126 6.73041 56.6751 5.8021 56.6389C4.78939 56.5907 2.39026 57.1935 1.1726 58.2423C0.931484 58.4473 0.847088 58.7969 0.895312 59.1104C1.82362 65.1625 2.70371 71.2628 3.16183 77.3752C3.41501 80.7268 2.63137 83.5961 1.71512 86.7789C0.871201 89.6723 0.280461 92.6501 0.0513971 95.6521C-0.34645 100.933 1.61867 105.803 4.1022 110.372C5.05462 112.157 7.0077 113.169 9.00899 112.977Z" fill="#F0BA7D"/>
<path opacity="0.8" d="M4.58417 57.6154C5.52453 57.4345 6.51312 57.5189 7.38116 57.9288C7.52583 58.0012 7.68256 58.1097 7.67051 58.2664C7.65845 58.3508 7.59817 58.4231 7.53789 58.4834C6.97126 59.0139 6.22378 59.2911 5.50043 59.5564C4.98202 59.7493 4.45155 59.9301 3.90904 59.9904C3.36652 60.0386 1.60635 59.7734 2.07653 58.8692C2.43821 58.1579 3.88492 57.748 4.58417 57.6154Z" fill="#547B80"/>
<path d="M104.348 32.3945C106.433 28.1749 106.168 23.1355 104.444 18.7713C102.72 14.4191 99.477 10.4888 95.0765 8.47546C90.6761 6.46211 85.0821 6.59474 81.1519 9.35556C79.5846 10.4527 78.3308 11.9114 77.2698 13.4667C73.5928 18.8557 72.2425 25.9446 74.8948 31.852C80.0186 43.2329 98.7416 43.7633 104.348 32.3945Z" fill="#F0BA7D"/>
<path d="M18.5213 29.8385C13.6868 26.4628 11.1671 22.5808 9.12968 17.3967C7.69502 22.2312 5.00653 27.15 0.967773 30.9597C4.37962 33.817 9.00912 38.6032 10.8296 44.3419C12.3848 38.1571 15.1938 33.1539 18.5213 29.8385Z" fill="#F5E8D0"/>
<path d="M162.277 98.9555C159.48 95.821 158.358 92.7105 157.804 88.7803C156.008 91.9028 153.343 94.8685 149.907 96.8578C151.812 99.4016 154.235 103.489 154.549 107.768C156.647 103.718 159.419 100.704 162.277 98.9555Z" fill="#F5E8D0"/>
</svg>
