<svg width="110" height="23" viewBox="0 0 110 23" fill="none" xmlns="http://www.w3.org/2000/svg">
<path d="M0.807617 3.8999H10.0676C15.3176 3.8999 18.1876 6.8399 18.1876 10.0799C18.1876 13.4999 15.0076 16.8199 9.38762 16.8199H6.22762V22.4699H0.817612V3.8999H0.807617ZM8.94762 13.4199C11.1976 13.4199 12.5276 12.1499 12.5276 10.5799C12.5276 8.98989 11.1976 7.7399 8.94762 7.7399H6.21762V13.4099H8.94762V13.4199Z" fill="#F5E8D0"/>
<path d="M19.5874 0.27002H24.8674V4.99002H19.5874V0.27002ZM19.6074 6.24002H24.8574V22.47H19.6074V6.24002Z" fill="#F5E8D0"/>
<path d="M35.5778 5.97012C41.2778 5.86012 44.5977 10.0801 44.5377 14.3201C44.5877 18.6201 41.1978 22.8601 35.3578 22.7501C29.6078 22.8301 26.3177 18.6401 26.3677 14.4201C26.3177 10.1301 29.7178 5.86012 35.5778 5.97012ZM38.2778 17.5601C38.8878 16.7601 39.2077 15.7801 39.2077 14.6401C39.2077 12.2301 37.7477 9.97012 35.2077 9.97012C32.9777 9.97012 31.7077 11.7501 31.7077 14.0801C31.7077 16.4901 33.2177 18.7501 35.7077 18.7501C36.8277 18.7501 37.6678 18.3501 38.2778 17.5601Z" fill="#F5E8D0"/>
<path d="M46.0576 6.23999H50.9076V11.2C51.7576 7.82998 54.6176 5.97998 57.2976 5.97998C59.9476 5.97998 62.1776 7.73 62.1776 10.78V22.48H56.9276V12.48C56.9276 11.02 56.0476 10.2 54.8576 10.2C53.1576 10.2 51.3076 11.98 51.3076 15V22.48H46.0576V6.23999Z" fill="#F5E8D0"/>
<path d="M71.9376 5.97014C76.5276 5.97014 79.0476 8.57013 79.0476 13.3701V14.0301H68.0176C68.5476 16.2301 70.5676 17.5301 73.2376 17.5301C75.2776 17.5301 77.4776 16.8101 79.1476 15.5401V20.6101C76.9976 22.0401 74.7476 22.7601 72.3876 22.7601C67.3776 22.7601 63.6876 19.3101 63.6876 14.2501C63.6376 10.0301 66.6676 5.89014 71.9376 5.97014ZM73.6076 11.9401C73.6076 10.1101 72.7076 9.08012 71.2176 9.08012C69.4976 9.08012 68.2976 10.2701 67.9576 11.9401H73.6076Z" fill="#F5E8D0"/>
<path d="M88.5675 5.97014C93.1575 5.97014 95.6775 8.57013 95.6775 13.3701V14.0301H84.6475C85.1775 16.2301 87.1975 17.5301 89.8675 17.5301C91.9075 17.5301 94.1075 16.8101 95.7775 15.5401V20.6101C93.6275 22.0401 91.3775 22.7601 89.0175 22.7601C84.0075 22.7601 80.3175 19.3101 80.3175 14.2501C80.2675 10.0301 83.2975 5.89014 88.5675 5.97014ZM90.2375 11.9401C90.2375 10.1101 89.3375 9.08012 87.8475 9.08012C86.1275 9.08012 84.9275 10.2701 84.5875 11.9401H90.2375Z" fill="#F5E8D0"/>
<path d="M97.6174 6.24002H102.467V11.46C103.107 7.67002 105.197 6.02002 107.767 6.02002C108.427 6.02002 109.037 6.15001 109.647 6.39001V11.45C108.907 11.03 108.027 10.81 106.997 10.81C105.217 10.81 103.627 11.58 102.857 13.04V22.45H97.6074V6.24002H97.6174Z" fill="#F5E8D0"/>
</svg>
