<svg width="35" height="35" viewBox="0 0 35 35" fill="none" xmlns="http://www.w3.org/2000/svg">
<path d="M15.6496 29.6497C15.212 30.0872 14.6186 30.3329 13.9999 30.3329C13.3812 30.3329 12.7878 30.0872 12.3503 29.6497L1.85025 19.1497C1.41282 18.7122 1.16709 18.1188 1.16709 17.5001C1.16709 16.8813 1.41282 16.2879 1.85025 15.8504L12.3503 5.35038C12.7903 4.92535 13.3797 4.69016 13.9915 4.69548C14.6033 4.70079 15.1885 4.94619 15.6212 5.3788C16.0538 5.81142 16.2992 6.39665 16.3045 7.00845C16.3098 7.62024 16.0746 8.20964 15.6496 8.64972L9.33325 15.1667L31.4999 15.1667C32.1188 15.1667 32.7122 15.4125 33.1498 15.8501C33.5874 16.2877 33.8333 16.8812 33.8333 17.5C33.8333 18.1189 33.5874 18.7124 33.1498 19.15C32.7122 19.5875 32.1188 19.8334 31.4999 19.8334L9.33325 19.8334L15.6496 26.3504C16.087 26.7879 16.3328 27.3813 16.3328 28.0001C16.3328 28.6188 16.087 29.2122 15.6496 29.6497Z" fill="black"/>
</svg>
